<?xml version="1.0" standalone="no"?><!DOCTYPE svg PUBLIC "-//W3C//DTD SVG 1.1//EN" "http://www.w3.org/Graphics/SVG/1.1/DTD/svg11.dtd"><svg t="1614090147399" class="icon" viewBox="0 0 1024 1024" version="1.1" xmlns="http://www.w3.org/2000/svg" p-id="2270" xmlns:xlink="http://www.w3.org/1999/xlink" width="512" height="512"><defs><style type="text/css"></style></defs><path d="M905.714286 694.285714q-22.285714 71.428571-70.285715 142.857143-73.714286 112-146.857142 112-28 0-80-18.285714-49.142857-18.285714-86.285715-18.285714-34.857143 0-81.142857 18.857142-46.285714 19.428571-75.428571 19.428572-86.857143 0-172-148-84-149.142857-84-287.428572 0-130.285714 64.571428-213.714285 64.571429-82.285714 162.285715-82.285715 41.142857 0 101.142857 17.142858 59.428571 17.142857 78.857143 17.142857 25.714286 0 81.714285-19.428572 58.285714-19.428571 98.857143-19.428571 68 0 121.714286 37.142857 29.714286 20.571429 59.428571 57.142857-45.142857 38.285714-65.142857 67.428572-37.142857 53.714286-37.142857 118.285714 0 70.857143 39.428571 127.428571t90.285715 72zM690.857143 24q0 34.857143-16.571429 77.714286-17.142857 42.857143-53.142857 78.857143-30.857143 30.857143-61.714286 41.142857-21.142857 6.285714-59.428571 9.714285 1.714286-85.142857 44.571429-146.857142 42.285714-61.142857 142.857142-84.571429 0.571429 1.714286 1.428572 6.285714t1.428571 6.285715q0 2.285714 0.285715 5.714285t0.285714 5.714286z" p-id="2271"></path></svg>