<?xml version="1.0" standalone="no"?><!DOCTYPE svg PUBLIC "-//W3C//DTD SVG 1.1//EN" "http://www.w3.org/Graphics/SVG/1.1/DTD/svg11.dtd"><svg t="1614400676397" class="icon" viewBox="0 0 1024 1024" version="1.1" xmlns="http://www.w3.org/2000/svg" p-id="3664" xmlns:xlink="http://www.w3.org/1999/xlink" width="512" height="512"><defs><style type="text/css"></style></defs><path d="M795.52000002 924.00000001H234.02666668c-75.09333333 0-136.53333333-61.44-136.53333333-136.53333333V224.26666668c0-75.09333333 61.44-136.53333333 136.53333333-136.53333334h561.49333334c75.09333333 0 136.53333333 61.44 136.53333332 136.53333334v563.2c0 75.09333333-61.44 136.53333333-136.53333332 136.53333333z" fill="#4E8DF6" p-id="3665"></path><path d="M819.41333335 512.69333335c-51.2-51.2-134.82666667-51.2-186.02666667 0L228.90666668 917.17333334l-6.82666667 6.82666667h571.73333333c75.09333333 0 136.53333333-61.44 136.53333334-136.53333333V625.33333334l-110.93333333-112.63999999z" fill="#2166CC" p-id="3666"></path><path d="M665.81333335 924.00000001l-290.13333334-291.84c-51.2-51.2-134.82666667-51.2-186.02666666 0L99.20000001 724.32000001V787.46666668c0 75.09333333 61.44 136.53333333 136.53333334 136.53333333h430.08z" fill="#629FF9" p-id="3667"></path><path d="M207.43968218 153.98526662a26.71859793 26.71859793 0 0 1 4.14303289-0.33050229h4.14349384c9.41908478 0 18.78101155 0.24660909 28.09499937 0.73982731a934.63696645 934.63696645 0 0 0 28.09546033 1.06479816h2.4338244c1.29527396 0 2.62235358 0.02581328 3.98031696 0.08343224 1.35335386 0.05807989 2.59607935 0.22033486 3.73416882 0.49321821s1.80969593 0.62919893 2.03003082 1.06479816c3.89642378 4.37396963 6.90182813 9.5398541 9.01022072 15.49719244 2.10793162 5.96333071 3.16765933 11.83723682 3.16765931 17.63278115v3.77058399c0 1.42157469-0.08389319 2.86896269-0.24153863 4.34815634-0.16225495 1.47366222-0.38258982 2.86850174-0.64994176 4.17990902-0.27288334 1.31094631-0.62412845 2.45963769-1.05419627 3.44561312-0.54576667 1.09614287-1.19063796 2.07704786-1.95120808 2.95285589-0.76057012 0.87580802-1.51560882 1.75161605-2.27617895 2.62235361v0.33004131c0 0.55083715 0.08389319 0.96016217 0.24153863 1.23258457 0.16225495 0.27288334 0.35124511 0.68220835 0.56604855 1.23258455 1.19063796 2.29692176 2.113924 4.67312721 2.75879528 7.13276489a171.8897696 171.8897696 0 0 1 1.78849217 7.46280622 137.76506247 137.76506247 0 0 1 1.30080538 9.10471581 86.26063663 86.26063663 0 0 1 0.48768677 9.2674317c0 4.81463936-1.16436372 9.05216732-3.49309114 12.71304481-2.32872743 3.665948-5.3073966 6.72343988-8.931398 9.18307759-3.62953282 2.45963769-7.66239827 4.2951469-12.09951826 5.49638676-4.44219047 1.2063103-8.76868208 1.80416453-12.99099865 1.80416451-7.68867251 0-15.50825527-0.57157997-23.4642797-1.72027134a770.78573164 770.78573164 0 0 1-23.13930884-3.69222222 143.27573872 143.27573872 0 0 0-0.40379359-5.08706174 51.60260852 51.60260852 0 0 1-0.24107769-5.08752269 459.23684948 459.23684948 0 0 0-1.21691218-33.54436907 758.79868554 758.79868554 0 0 1-1.70413804-33.54436906 184.88076823 184.88076823 0 0 0-1.4635213-17.13956296c-0.76057012-5.74299585-1.13808948-11.40163757-1.13808946-16.97684703 0-0.98597545 0.05254847-1.96688044 0.1627159-2.95285589 0.10463601-0.97537356 0.20973297-1.90373006 0.3199004-2.77953808z m68.69377157 20.99404014c0-0.54530573-0.62412845-0.92789556-1.86685394-1.14823042-1.24318644-0.22033486-2.67997254-0.35170606-4.30067833-0.40932501-1.62577625-0.05254847-3.24648204-0.08389319-4.8722583-0.08389318s-2.75879526-0.05254847-3.40919796-0.16271591a176.82102969 176.82102969 0 0 0-17.05013832-1.47366224 444.50668049 444.50668049 0 0 0-17.05013835-0.33004133h-2.4338244c-0.10970647 4.70401097 0.08435412 9.40341242 0.56697047 14.10788433a245.36314818 245.36314818 0 0 1 1.05373532 14.10788436 432.53715056 432.53715056 0 0 0 16.40019659 0.98597543 403.22201236 403.22201236 0 0 0 16.39973566 0.3305023c3.03121765 0 5.76373868 0.02627425 8.20263353 0.0838932 2.43382439 0.05761897 4.48966849-0.24660909 6.1730637-0.90208227 1.67786378-0.65547317 2.97313776-1.91433196 3.89642376-3.770584 0.91775461-1.85717396 1.37962809-4.69940145 1.37962812-8.52806535 0-0.76564058-0.08389319-1.74654556-0.24153863-2.95285588a136.44674093 136.44674093 0 0 0-0.56650952-3.770584c-0.21987391-1.31140727-0.54530573-2.51218617-0.97537355-3.60832905-0.44066972-1.10674476-0.87580802-1.92493385-1.30587585-2.47531003zM264.76316089 219.59527205c-2.70578582 0-5.63282842 0.02627425-8.76914303 0.08389319-3.14138508 0.05761897-6.33024818 0.05761897-9.58180069 0a105.08866526 105.08866526 0 0 1-9.49790751-0.57665043c-3.08376613-0.33050228-5.92645459-0.81818907-8.5276044-1.47366224v1.96641948c0 5.90571175 0.02627425 11.83723682 0.08389319 17.7950361 0.05254847 5.96333071 0.35124511 11.83723682 0.89148038 17.63232021l1.30080539 0.9864364c5.30232613 0.55037619 10.57837803 1.09568193 15.8336871 1.64098763 5.2493167 0.55083715 10.57791707 0.81818907 15.99594203 0.81818909 0.86520614 0 2.11346304-0.05254847 3.73370788-0.16225495 1.62623722-0.10509696 3.27275629-0.35170606 4.95108103-0.7398273 1.67832473-0.38258982 3.19439452-0.90208227 4.54728741-1.55755543 1.35289292-0.65547317 2.19228577-1.47366222 2.51725664-2.45963768 0.32497087-0.22033486 0.59278374-0.73936635 0.81311861-1.55801637 0.21480345-0.81772812 0.35124511-1.71981038 0.40379359-2.70578582 0.05208753-0.98643641 0.10463601-1.94060618 0.16225496-2.86896271 0.05254847-0.92835652 0.08389319-1.61010391 0.08389319-2.05077361 0-4.59430448-0.38258982-8.96274272-1.13808947-13.1219089-0.76057012-4.15363477-1.89312818-8.3648885-3.40873701-12.62869069-1.73087321 0-3.46635596 0.16225495-5.19769012 0.49275724a28.11804697 28.11804697 0 0 1-5.19722917 0.48768679zM310.87952361 200.40585738c0-1.20123985 0.13644169-2.21348954 0.4037936-3.03674908 0.26735194-0.81818907 1.16436372-1.66772284 2.67997254-2.54353086a316.10446672 316.10446672 0 0 1 6.33531864-3.11511084c2.05584409-0.98643641 4.14349383-1.83043877 6.2518864-2.54399182 2.10839257-0.70802165 4.35829728-1.25332737 6.73911223-1.64098767 2.3812759-0.38351173 4.97735527-0.57204093 7.79376948-0.57204091 12.66556682 0 22.11092585 2.86896269 28.33653801 8.61149759 6.22515122 5.74299585 9.33519157 14.08207104 9.33519158 25.01123324 0 5.57520948-0.11016743 11.40209851-0.32497086 17.47006524a1024.22060309 1024.22060309 0 0 1-0.81311861 18.12553839 177.73509669 177.73509669 0 0 0-0.48768677 8.03438621c-0.11016743 2.73252101-0.22033486 5.36040604-0.32497088 7.8725922 0 0.55037619-0.18899015 0.98597545-0.56697045 1.31094631-0.38258982 0.33050228-0.8389319 0.49321821-1.37916715 0.49321821-0.43513829 0-0.86520614 0.05761897-1.30034445 0.16225496-0.22033486 0-0.48768678 0.02627425-0.81311861 0.08389318s-0.59785422 0.08389319-0.81265763 0.0838932c-0.6504027 0.11062838-1.41097282 0.19406062-2.27617894 0.24660908a34.58519776 34.58519776 0 0 1-2.27110851 0.0838932c-0.64994174 0-1.41051187-0.08389319-2.27617894-0.2466091a163.97062129 163.97062129 0 0 1-2.11346303-0.40886405h-0.32543183c-0.10970647 0-0.16225495-0.05254847-0.16225496-0.16271592-0.54576667-0.11016743-1.19063796-0.16225495-1.95120808-0.16225496l-0.81265765 0.16225496c-0.54576667 0-1.27453114 0.08389319-2.19228576 0.2466091a39.53120829 39.53120829 0 0 0-2.67997254 0.57157997c-1.51560882 0.44066972-3.24648204 0.81818907-5.19769011 1.14869137-1.95074713 0.33050228-4.00659123 0.49321821-6.17260274 0.49321819-5.522661 0-10.28475186-0.81865003-14.29180403-2.46009863-4.00659123-1.64144861-7.30562174-3.85447718-9.90677156-6.64461716-2.59607935-2.79013998-4.54728743-6.06842767-5.84809282-9.84454309-1.30034444-3.77058399-1.95074713-7.79330852-1.95074713-12.05711072 0-0.76564058 0.16271591-2.05077362 0.4876868-3.85493814 0.32497087-1.80416453 0.78684436-3.69222222 1.37916714-5.65864171 0.59278374-1.96688044 1.26946068-3.77058399 2.03003081-5.41249359 0.75503871-1.64144861 1.56769636-2.73252101 2.43336343-3.28335815l2.4338244-1.31094632 1.95074712-1.14869137v0.1627159c1.30034444-0.76564058 2.86850174-1.44738799 4.70954239-2.05077361 1.84057971-0.59785422 3.78671731-1.06479818 5.84763187-1.3948395 2.05584409-0.33050228 4.05960065-0.57157997 6.01034777-0.73982731 1.95120807-0.16225495 3.57145291-0.24614815 4.87225831-0.24614813 2.16601152 0 4.19558137 0.11016743 6.0891705 0.33004132 1.89312818 0.22033486 3.75998211 0.44066972 5.60102275 0.65593412l2.10839257 0.49321819c0.43006784 0 0.8389319 0.05715801 1.21691219 0.16225496 0.37751935 0.11016743 0.78638341 0.16271591 1.21691219 0.16271592 0.21480345-0.76610154 0.29869663-1.53174213 0.24107769-2.29738273a28.24480865 28.24480865 0 0 1-0.07882272-2.13420585c0-1.31140727-0.13644169-2.79060093-0.40379359-4.42651813a108.6702591 108.6702591 0 0 0-0.89148038-4.75702039c-2.70624679-1.20123985-5.68537689-2.34947025-8.93185894-3.44561314-3.24648204-1.09107242-6.22515122-1.64190957-8.93139801-1.64190955a32.37631774 32.37631774 0 0 0-11.61137052 2.13466682c-3.73416883 1.42157469-6.79719214 2.62281453-9.17293663 3.60832903v-0.16271593l-1.46352131 0.98643641c-0.54530573 0.44020878-1.05419628 0.71309212-1.54188306 0.81772812-0.48768678 0.11062838-1.11181523 0.16271591-1.86685395 0.16271591l-0.97537356-0.16271591c-0.32543181 0-0.59831515-0.05208753-0.81311858-0.16225495-0.22033486 0-0.43513829-0.05254847-0.64994176-0.16271591l-0.65086364-0.65547317c-0.86520614-2.84268846-1.30034444-5.522661-1.30034442-8.03484716v-1.30587584z m47.42177761 49.04202245c0.10463601-2.07658691 0.21480345-4.17990902 0.32497087-6.31411486 0.10509696-2.13466681 0.26735194-3.69222222 0.48768679-4.67312723-0.64994174-0.22033486-1.84057971-0.40886405-3.57145293-0.57157997a86.5150819 86.5150819 0 0 0-5.52220004-0.3305023c-1.95120807-0.05254847-3.79224874-0.10463601-5.52312194-0.16271589-1.73041226-0.05208753-2.81641422-0.08389319-3.24602108-0.08389319-2.3812759 0-4.33202303 0.08389319-5.84809282 0.24660908-1.51560882 0.16271591-2.73206007 0.5771114-3.65534611 1.23258457-0.92282509 0.65547317-1.54188306 1.55755542-1.86685394 2.70578583-0.32543181 1.14915231-0.48814773 2.70670775-0.48814774 4.67312719 0 5.02990374 1.35335386 8.55941008 4.05960065 10.578839 2.70578582 2.02403843 6.92810238 3.03628811 12.66556683 3.03628811 1.30080538 0 3.16765933-0.13644169 5.60148372-0.40886405s4.46293328-0.68220835 6.08917048-1.23258456c0-0.65547317 0.02581328-1.44738799 0.07836178-2.37574448a43.25108764 43.25108764 0 0 1 0.24107769-2.70624678v-1.31140727c0-0.22033486 0.02627425-0.46095158 0.08389318-0.73936636 0.05254847-0.27288334 0.07882272-0.5190315 0.07882273-0.73936635v-0.82372049z m30.36610785 7.87259219l-0.16778638-0.32543182 0.16271592 0.16271592v0.1627159z m11.03979058-59.04928145c1.84104065-1.09061146 3.38292372-1.94060618 4.62611014-2.54353087a81.75068628 81.75068628 0 0 1 3.81806202-1.72027133l2.43336344-0.81818907v-0.16271591c1.08047053-0.43513829 2.38081495-0.81818907 3.89688473-1.14823041 1.51560882-0.33050228 2.86850174-0.49321821 4.05913969-0.49321821 9.63388823 0 18.18822781 2.40755015 25.65656546 7.2166581 0.86520614 0.44066972 1.75714747 1.03852393 2.67997256 1.80416451 0.91775461 0.76564058 1.64698003 1.42111375 2.19228574 1.96688042 0.21480345 0.21987391 0.64994174 0.60292468 1.3008054 1.14823043 0.64994174 0.55083715 1.08000957 0.92835652 1.30034443 1.14869134v0.16271591c0 0.11016743 0.02627425 0.19359967 0.07882273 0.24614817 0.05254847 0.05807989 0.08389319 0.13644169 0.08389319 0.2466091l0.16271591 1.31140726-0.16271591 1.64098765a68.51860996 68.51860996 0 0 1-0.8131186 2.62281456 13.12928412 13.12928412 0 0 1-1.30034445 2.79013996 7.8029885 7.8029885 0 0 1-2.02956984 2.21302858c-0.81311861 0.60338563-1.76221793 0.90208227-2.84268845 0.90208227-1.30080538 0-2.81641422-0.59785422-4.54728742-1.80416451-1.73594369-1.20077889-3.19393357-2.40155779-4.38457153-3.60832905l-1.95074713-1.64098766c-0.32497087 0-0.59785422-0.11062838-0.8131186-0.33096326h0.1627159l-3.57145289-0.98597543a56.88603564 56.88603564 0 0 0-5.43876781-1.64144862c-1.78849217-0.43513829-3.6553461-0.65547317-5.60102277-0.65547315l-1.62577625 0.1627159c-1.84104065 0.55037619-3.57191387 1.75161605-5.19769013 3.6078681-1.62577625 1.86224442-2.43382439 3.5562415-2.43382439 5.08752268 0 1.96688044 0.48814773 3.58159385 1.46352131 4.8409136 0.97583451 1.25839783 2.27110848 2.29692176 3.89688472 3.11511084 1.62577625 0.81818907 3.43501125 1.45291941 5.4387678 1.88805771 2.00329559 0.44066972 4.08541395 0.87580802 6.25142546 1.31094631 3.68162035 0.55083715 7.44206342 1.42157469 11.28639967 2.62281456 3.8392658 1.20584935 6.84420921 2.89984645 9.01022073 5.08706173 1.08047053 1.09614287 1.95120807 2.27064753 2.59607935 3.52443585 0.64994174 1.25839783 1.24318644 2.6536983 1.78849214 4.18544044l0.97537358 2.95239492v-0.1627159a18.45097022 18.45097022 0 0 1 1.05419629 3.19900404c0.26735194 1.14869136 0.4037936 2.32319602 0.40379359 3.52443586l-0.16271592 2.29738271c-0.43513829 4.59430448-1.6520505 8.42296841-3.6553461 11.48046028-2.00329559 3.06256236-5.60102276 5.85270233-10.79871287 8.36488849-0.22033486 0.11062838-1.51560882 0.49321821-3.8964238 1.14869137-2.3812759 0.65547317-5.14514164 1.2063103-8.28145625 1.64144862l-0.48768679 0.16271589h-1.46306034c-4.22231657 0-8.52760441-0.54530573-12.91263687-1.64144862-4.38411056-1.09107242-8.19710211-2.79013998-11.44865463-5.08752268-0.11062838 0-0.4037936-0.11016743-0.89148039-0.33004134a27.61284401 27.61284401 0 0 1-1.05419627-0.4932182l-1.4635213-0.98597545c-0.86520614-0.54530573-1.67786378-1.31094631-2.43382439-2.29692178-0.76010917-0.98643641-1.51514786-1.96688044-2.27064753-2.95285587l-1.46306034-1.6414486-2.27110847-3.60832906a177.03767694 177.03767694 0 0 1 0.65040268-4.01765404c0.21526439-1.25332737 0.48768678-2.21302858 0.8131186-2.86850174 0.21480345-1.31140727 0.8389319-2.40201873 1.86685394-3.28335818 1.02792203-0.87580802 2.29738271-1.58382967 3.81806202-2.13420585l0.32543181 0.33004133c1.08000957 0.87580802 2.02956985 1.77789028 2.84222752 2.70624678 0.81311861 0.92835652 1.64698003 1.99822514 2.51771757 3.19900402h-0.16271591c0.64994174 0.22033486 1.10628381 0.5771114 1.37916714 1.0647982 0.26735194 0.49321821 0.4037936 0.90208227 0.4037936 1.23258454 2.81641422 1.86224442 6.2518864 3.665948 10.31148706 5.41249356 4.0591397 1.75161605 8.03945667 2.62235358 11.93634142 2.62235359 0.54023526 0 1.40590234-0.11062838 2.59607933-0.33050228 1.19063796-0.22033486 2.27110848-0.65547317 3.24648205-1.31094633 0.86520614-1.20123985 1.62577625-2.62281453 2.27064754-4.26380219 0.6504027-1.64190957 0.97583451-3.22573922 0.9758345-4.7570204 0-0.98643641-0.05761897-1.88805771-0.16271589-2.7062468a17.32624836 17.32624836 0 0 0-0.4876868-2.37574449l-0.32543181-0.98643639-0.81265764-0.81772813c0-0.11062838-0.07836177-0.24660909-0.24107771-0.40932501-0.16271591-0.16225495-0.29915758-0.29869663-0.40425453-0.40886406-2.05584409-0.76564058-4.0591397-1.36902623-6.01034776-1.80416451a101.71910914 101.71910914 0 0 0-6.00988684-1.14869138c-2.3812759-0.43513829-4.73627758-0.87580802-7.06454407-1.31094633-2.32872743-0.43559925-4.41084576-1.09107242-6.2518864-1.96688042h0.16271591a20.70364064 20.70364064 0 0 1-6.49803455-3.44561312c-1.95120807-1.53128119-3.6553461-3.25155251-5.11333597-5.16588447-1.46352129-1.91433196-2.59607935-3.93883134-3.40919797-6.06796671-0.81265764-2.13466681-1.2169122-4.12782149-1.21691221-5.98960496 0-1.64144861 0.18899015-3.41426842 0.56697046-5.32860037 0.3770584-1.91387101 0.99611639-3.69222222 1.86685394-5.32860038 0.54023526-0.33004133 0.86520614-0.65547317 0.97537356-0.9855145 0.10509696-0.33050228 0.21526439-0.65593411 0.32497088-0.98643639h-0.16225497c0-0.10463601 0.02627425-0.13598071 0.08389321-0.08389319 0.05254847 0.05807989 0.08389319 0.02627425 0.08389318-0.08389319 0.21480345-0.54530573 0.48768678-1.14823042 0.81265766-1.80416453s0.75549965-1.14823042 1.30080538-1.47366224l3.25155252-1.79310168z m65.27996407 34.93966953c0-3.60832905 0.16225495-7.21665808 0.48768679-10.82498714 0.32497087-3.8286639 1.48426413-7.54669942 3.49263022-11.15502846a39.43164276 39.43164276 0 0 1 7.55223081-9.67629574c3.0316786-2.84268846 6.41414137-5.13961023 10.1483102-6.89122629 3.73416883-1.74700652 7.55223083-2.62281453 11.44911558-2.62281453 3.35664948 0 6.30397393 0.11062838 8.8475048 0.33050228 2.54353087 0.22033486 5.54893523 0.92835652 9.01022072 2.13420585 0.10509696 0.11062838 0.3779803 0.27334429 0.8131186 0.49321821 0.32497087 0.22033486 0.70249022 0.40932501 1.13808949 0.57157997 0.43006784 0.16271591 1.02792203 0.40932501 1.78849216 0.7398273 1.19017701 0.55083715 3.00540436 1.80416453 5.43830684 3.770584 2.43382439 1.96688044 4.81463936 4.2638022 7.1433668 6.89122627 2.32872743 2.62281453 4.27440409 5.41295451 5.84763185 8.36534943 1.5681573 2.95285588 2.13420586 5.79554433 1.70459899 8.52760442 0 0.65593411-0.05254847 1.47412319-0.16271593 2.46009862s-0.22033486 1.96688044-0.32497086 2.95285589a166.81653639 166.81653639 0 0 1-0.32543183 2.70578583c-0.11016743 0.81818907-0.22033486 1.45291941-0.32497087 1.88805771 0 0.87580802-0.43513829 1.53174213-1.30080538 1.96688043-0.86520614 0.44066972-1.86685393 0.73936635-3.00540437 0.90208227a25.23940429 25.23940429 0 0 1-3.57099195 0.2466091h-3.81852297c-7.79330852 0-15.20909767-0.16271591-22.24736752-0.49321821a971.97174045 971.97174045 0 0 1-22.24782846-1.31094631c0.75549965 3.8286639 1.54188306 6.91750051 2.35500168 9.26697075 0.81311861 2.35546263 2.24483425 4.89346208 4.30067833 7.62598308l-0.16271591-0.33050228c3.46174644 1.86224442 6.87048345 3.33544571 10.23220337 4.42651811 3.35664948 1.09614287 6.76538647 1.64144861 10.2322034 1.64144862 2.59607935 0 4.97735527-0.29869663 7.14843724-0.90208226 2.16647247-0.59785422 4.08541395-1.31094631 5.76373867-2.13420587 1.67832473-0.81865003 3.14184604-1.6681838 4.38457151-2.54399182 1.24318644-0.87580802 2.24483425-1.64144861 3.00540437-2.29692176a59.83151632 59.83151632 0 0 0 2.75833431-1.96688044 23.07938514 23.07938514 0 0 1 1.13855042-0.81818907c1.08000957 0 1.95074713 0.49321821 2.5956184 1.47366223 0.6504027 0.98643641 1.13855043 2.07704786 1.4635213 3.28335818a16.81136541 16.81136541 0 0 1 0.56604854 3.69222222c0.05254847 1.25839783 0.08435412 2.10793162 0.08435414 2.54353087v3.60832905c0 0.22033486-0.02627425 0.49321821-0.08435414 0.81818906-0.05761897 0.33004133-0.29869663 0.60292468-0.72876444 0.81818907-4.11721958 4.04853781-8.25518201 7.13783536-12.42448915 9.26697075-4.16930711 2.13420586-9.28310407 3.19900403-15.34553936 3.19900405-9.85514497 0-18.16241452-2.10286116-24.927801-6.31411487-6.76538647-4.20618325-12.15160581-10.79871289-16.15865797-19.76698702a216.83070574 216.83070574 0 0 1-2.51725662-7.79330852c-0.80758719-2.67490208-1.21138078-5.59595229-1.2113808-8.76914303z m56.83533098-15.0938598l-0.32497087-0.16271591c-1.95074713-2.07704786-3.84433626-3.66087753-5.68491595-4.7570204-1.84104065-1.09061146-3.76597449-1.88805771-5.76419961-2.37574448-2.00329559-0.49321821-4.11675863-0.79191484-6.33531866-0.90208228a153.28530249 153.28530249 0 0 0-7.22725998-0.16271592c-0.86520614 0-1.89312818 0.22033486-3.08376612 0.65593412a19.25026026 19.25026026 0 0 0-3.4926302 1.72027135 27.56859265 27.56859265 0 0 0-3.24648205 2.38081495c-1.02792203 0.87580802-1.76221793 1.80416453-2.19228575 2.79013997 6.38786713 0.33050228 12.69184106 0.62919893 18.91745324 0.90208226 6.22515122 0.27288334 12.47657667 0.40932501 18.7547373 0.40932501h0.81265765l-1.133019-0.49828867z m-273.12303575 218.64777691c12.15713722-8.59628618 28.09499937-12.89696452 47.81496931-12.89696451 21.46098411 0 39.5026293 3.44561314 54.11894327 10.33176893 14.61677491 6.88661675 21.92285759 15.40361926 21.92285757 25.54685899 0 10.41059165-8.60135666 19.28944118-25.80867947 26.63193901s-38.04970989 11.01351633-62.52116881 11.01351633c-27.59164025 0-50.51107516-5.16588445-68.74632007-15.49765338-18.23524489-10.33176893-27.35563302-23.31769711-27.35563301-38.96239406 0-17.45900242 9.84408213-32.20668756 29.53777786-44.24858687 19.68770333-12.04143837 43.78164292-18.06238804 72.27536538-18.06238802 18.02597286 0 34.16342704 2.56473465 48.40775308 7.68867252s21.36648903 10.94529549 21.36648901 17.45946334c0 8.32801238-9.6237473 12.49224905-28.86110091 12.49224901-10.36311363 0-18.98014265-0.90715273-25.85016512-2.72191913 0.36691747-2.02956985 0.55544666-3.71296506 0.55544665-5.04511514 0-7.90347594-7.45220436-11.85290917-22.35753493-11.85290917-12.63468306 0-21.53980681 2.85836081-26.72136363 8.569551-5.18662727 5.71672161-7.77763617 15.56633518-7.77763618 29.5534502z m33.70201451 4.32649162c-9.19921087 0-16.93997092 1.90880052-23.23380392 5.72686255-6.29337205 3.81806202-9.4352181 8.52760441-9.43521806 14.13461954 0 5.33874131 2.87956457 9.7445166 8.64330324 13.21640397 5.75866821 3.47188737 13.11130701 5.20783105 22.042705 5.20783106 20.66906927 0 31.00129915-6.51416786 31.00129916-19.54158168 0-5.60655417-2.6536983-10.13263783-7.96662633-13.57318049-5.31292803-3.45068361-12.33045502-5.17095493-21.05165909-5.17095495z m247.54483204-56.62605894v60.30767928h40.2788718L556.82485364 462.79333062h-26.87854814v5.44383825l43.29395616 25.54639804h-146.13548242l48.68570687-25.54593708V462.79333062H377.54833484V442.20723263l101.97078869-57.74294465H529.94676647zM475.79094708 444.77242823V410.49376327l-58.19974766 34.27866496h58.19974766z" fill="#FFFFFF" p-id="3668"></path></svg>