<?xml version="1.0" standalone="no"?><!DOCTYPE svg PUBLIC "-//W3C//DTD SVG 1.1//EN" "http://www.w3.org/Graphics/SVG/1.1/DTD/svg11.dtd"><svg t="1614407051079" class="icon" viewBox="0 0 1024 1024" version="1.1" xmlns="http://www.w3.org/2000/svg" p-id="2367" xmlns:xlink="http://www.w3.org/1999/xlink" width="512" height="512"><defs><style type="text/css"></style></defs><path d="M623.980501 737.416956l119.99625 87.293272V1023.968001h-383.988001v-149.083341l20.47936-7.903753c40.63873-15.67951 65.789944-62.39805 58.174182-110.71654-7.487766-47.742508-44.47861-81.757445-86.653292-81.757445-42.174682 0-79.165526 34.014937-86.653292 81.757445-7.615762 48.31849 17.535452 95.03703 58.174182 110.71654l20.47936 7.903753V1023.968001h-191.994C67.389894 1023.968001 0 950.434299 0 861.093091V162.87491C0 73.565701 67.389894 0 151.99525 0h799.975001C992.384988 0 1023.968001 34.462923 1023.968001 75.645636s-31.583013 75.613637-71.99775 75.613637H191.994c-3.775882 0-7.99975 4.639855-7.99975 11.647636 0 7.03978 4.223868 11.647636 7.99975 11.647636h719.977501c62.494047 0 111.9965 53.982313 111.9965 119.260273v610.860911C1023.968001 969.985688 974.465548 1023.968001 911.971501 1023.968001h-151.99525v-213.817318L639.980001 722.88941v-109.820568l20.47936-7.903753c40.63873-15.67951 65.789944-62.39805 58.174182-110.716541-7.487766-47.742508-44.47861-81.725446-86.653292-81.725446-42.174682 0-79.165526 33.982938-86.653292 81.725446-7.615762 48.31849 17.535452 95.03703 58.174182 110.716541l20.47936 7.903753v124.348114zM823.974251 959.970001h87.99725c25.855192 0 47.9985-24.159245 47.9985-55.262273V293.814818c0-31.135027-22.143308-55.262273-47.9985-55.262273H191.994c-40.414737 0-71.99775-34.462923-71.99775-75.645636S151.579263 87.261273 191.994 87.261273h759.976251c3.775882 0 7.99975-4.607856 7.99975-11.615637 0-7.03978-4.223868-11.647636-7.99975-11.647636h-799.975001C104.060748 63.998 63.998 107.676635 63.998 162.87491v698.218181C63.998 916.259367 104.060748 959.970001 151.99525 959.970001h127.996v-43.038655c-56.926221-32.702978-88.797225-101.212837-77.885566-170.618668C214.3933 668.395113 277.303334 610.540921 351.989 610.540921c74.717665 0 137.5957 57.886191 149.883316 135.803756 10.911659 69.43783-20.959345 137.91569-77.885566 170.618668V959.970001h255.992001v-102.684791l-119.99625-87.261273v-114.87641c-56.926221-32.734977-88.797225-101.212837-77.885567-170.650668 12.255617-77.917565 75.19765-135.771757 149.883317-135.771757 74.717665 0 137.5957 57.854192 149.883316 135.771757 10.911659 69.43783-20.959345 137.91569-77.885566 170.618669v35.1989l119.99625 87.261273V959.970001zM351.989 698.154183c40.414737 0 71.99775 34.462923 71.99775 75.645636s-31.583013 75.613637-71.99775 75.613637-71.99775-34.430924-71.99775-75.613637 31.583013-75.645636 71.99775-75.645636z m0 63.998c-3.775882 0-7.99975 4.607856-7.99975 11.647636s4.223868 11.615637 7.99975 11.615637 7.99975-4.607856 7.99975-11.615637c0-7.03978-4.223868-11.647636-7.99975-11.647636z m279.991251-325.813819c40.414737 0 71.99775 34.462923 71.99775 75.645636s-31.583013 75.645636-71.99775 75.645637S559.982501 553.166714 559.982501 511.984s31.583013-75.645636 71.99775-75.645636z m0 63.998c-3.775882 0-7.99975 4.639855-7.99975 11.647636 0 7.03978 4.223868 11.647636 7.99975 11.647637S639.980001 518.991782 639.980001 511.984c0-7.03978-4.223868-11.647636-7.99975-11.647636z" fill="#1296db" p-id="2368"></path></svg>