<?xml version="1.0" standalone="no"?><!DOCTYPE svg PUBLIC "-//W3C//DTD SVG 1.1//EN" "http://www.w3.org/Graphics/SVG/1.1/DTD/svg11.dtd"><svg t="1614343646264" class="icon" viewBox="0 0 1024 1024" version="1.1" xmlns="http://www.w3.org/2000/svg" p-id="13425" xmlns:xlink="http://www.w3.org/1999/xlink" width="64" height="64"><defs><style type="text/css"></style></defs><path d="M875.02832471 682.20804084c-6.00323001-75.7368524-38.44644619-139.15469706-91.17130301-192.77089328-30.22991584-30.8071649-63.88705209-57.35287757-101.96384371-77.94552252-18.33149743-9.90505904-37.08126908-19.01601563-57.14837067-25.23146879l-0.31331944-0.15665972c-14.16805467-4.21514845-14.27300869-4.42428558-26.07033159 4.26685416-17.17082723 12.63772834-36.81579683 18.64481687-57.3050304 22.75269619-26.81041324 5.31948352-53.82919187 6.26793056-81.05865102 3.84549388-17.69636982-1.57894444-35.184375-4.79394092-51.56109901-11.90304941-6.47783938-2.79209204-12.53431773-6.48015449-18.54140625-10.11419537-5.47691494-3.3716562-10.79717016-3.47429512-16.69467444-1.15758417-38.02585762 14.90504948-72.57510501 35.44521704-103.54510249 62.09588451-32.07742012 27.59679863-59.83242188 58.88320313-81.21762585 95.59404516-19.32779166 33.12927779-32.28346964 68.57372312-38.02508591 106.4923116-5.58032556 37.55510677-4.68898613 74.9496953 4.79471262 111.81796875 10.63588023 41.87057902 34.23129773 74.15790796 71.99554084 95.6997709 26.43998694 15.11264319 55.19899995 23.75130552 84.745941 29.96830209 24.80470658 5.26391931 49.92659114 8.10926045 75.157289 10.27317098 1.26253819 0.10263891 2.52739148 0.52477166 3.73668057 0.78561369h245.96418659c5.89904692-0.7856137 11.84980029-1.73560415 17.74884645-2.31439584 34.02293232-3.42413283 67.41459632-9.53386027 99.80610759-20.54171172 28.33688104-9.68974829 54.25132462-23.49046271 75.42353296-45.29316846 17.17005551-17.80286801 29.12403737-38.66021352 36.4978464-62.20392534 9.58942448-30.60111459 11.27255124-62.15299136 8.74515977-93.95953729z m-336.39463549 63.99200689c-7.69175869 3.73899567-15.95690714 6.26638717-24.75300168 9.74222569 0 9.9529062 0.15665972 20.43444183 0 30.80793582-0.16051823 6.53417529-0.36965536 6.89919967-7.00801221 7.1145104-9.26607291 0.25929863-18.53754773-0.0540208-27.75500175-0.10649743-2.26654944 0-3.42336113-1.10973698-3.57924914-3.21499648-0.42213198-5.05478297-0.79255903-10.11033763-0.89597042-15.16820664-0.15588802-5.58109726-0.05247739-11.21698779-0.05247663-17.00953728-8.32225607-1.47476212-16.53955813-2.74115882-24.70592619-4.4242848-11.7965512-2.47491408-23.27592444-5.84579859-33.02123694-13.43260326-1.00015274-0.78792881-2.0003047-2.68482291-1.68389845-3.68420317 3.37242791-12.3768863 7.10756507-24.75685942 10.74623693-37.08126909 0.10341062-0.52631507 0.42213198-0.94690364 0.89596965-1.73560415 3.73513716 1.52723874 7.47644795 3.10541148 11.16142359 4.58094529 14.64343574 6.00323001 29.59941846 10.95382988 45.6118898 11.53648009 9.79470307 0.31486284 19.27608595-0.31717794 27.59757034-6.42536199 14.48600433-10.69221614 15.01231862-28.23269795 0.42213275-38.71191844-6.10818403-4.42428558-13.42797226-7.37380903-20.38042101-10.4815364-12.69406426-5.68836717-25.96537757-10.26931245-38.23808156-16.80117187-15.4861563-8.16328125-27.65004773-20.17437149-33.18329859-37.44783685-9.47906854-29.65112414 2.68713802-60.51616837 30.18129774-76.15975608 7.42705813-4.15881254 15.74854251-6.74176823 23.80532631-9.63958678 2.47414238-0.89133942 3.2643863-1.73560415 3.26438632-4.21128994 0.10572573-9.53386027 0.37042705-19.01292881 0.57956339-28.54524567 0.10341062-3.74131079 1.74023438-5.26855029 5.37350434-5.16282381 9.37334203 0.26392886 18.74899996 0.52554337 28.12311368 0.47460937 3.74131079 0 4.84564584 2.0003047 5.00230557 5.00153387 0.31717794 4.58480381 0.42213198 9.11404342 0.52631507 13.694217 0.05633592 3.37242791 0 6.79501733-0.26084281 10.16667277-0.26547226 3.31840711 0.84426473 4.5809453 4.32010326 5.15896529 13.63788107 2.31902607 27.33209808 4.48139319 39.86950261 10.85041926 7.47721964 3.79301648 7.47721964 3.74131079 5.32025522 12.01031776-2.79286374 10.95305817-5.32025522 22.01570137-10.9576884 32.54817098-1.89689408-0.84426473-3.73745227-1.57971614-5.58109803-2.37073177-16.11742538-6.47552427-32.76116584-10.95382988-50.1928351-10.58417453-5.37118922 0.10418232-11.01016581 1.10742188-16.01247136 3.05370578-12.16774996 4.74223523-15.80101913 20.11957898-7.58294615 30.28779517 4.84718926 6.00091489 11.37519092 9.53000176 18.22422829 12.5312309 14.11557727 6.16374824 28.54447398 11.53570916 42.39612239 18.22268489 14.11634897 6.74253994 26.12358069 16.38289842 33.60543057 30.60265878 14.95521176 28.75361108 10.58340283 73.52355205-31.18222141 94.01355732z m-1e-8 0M349.44744701 262.43572826c10.53169791 25.49231161 20.85503039 51.14128214 30.86581515 76.8982943 4.42197046 11.42766755 12.47875351 18.64481687 23.85548784 21.80270574 12.74731336 3.52831592 25.70376306 6.79578905 38.76516755 9.1657491 36.07880124 6.37288459 71.94692273 5.58109726 107.07419012-5.8990477 9.84872312-3.21499649 19.33242188-7.69021529 28.38935766-12.69406426 8.84857115-4.89812324 13.53755727-12.90320137 12.27116056-23.5429401-0.47383768-4.26762586-0.79101563-8.58309812-0.52631428-12.90242967 2.05278211-39.60866058 13.74669362-76.42368493 32.0218559-111.39506429 3.42336113-6.47783938 6.32040796-13.59003467 7.7951693-20.75084808 2.94952345-14.27300869-4.05385852-24.49138716-17.74807551-27.3375-3.16329081-0.68220307-6.47783938-0.68220307-9.74454079-0.57802075-10.58880551 0.47383768-20.22453301 4.05463022-29.12480908 9.95367789-5.1628238 3.52677174-10.48385073 7.00724049-16.11742616 9.48215536-10.58803382 4.5824887-19.38412757 1.15758416-24.38720407-9.26915971-2.26269092-4.53309812-3.58079255-9.48369876-5.89904768-14.01216665-3.47583852-6.79578905-6.63449911-14.00830813-11.37596186-19.85487843-17.27500956-21.38443227-47.98107818-19.48830989-62.56895047 3.84549388-3.89797051 6.21236636-6.74253994 13.22115102-9.1657491 20.17282732-4.89812324 14.16419614-14.48137411 22.9078125-29.2282197 24.85718398-11.5897292 1.57894444-23.38859551 1.68698527-35.08096437 2.42243746 0-0.31331944 0-0.68297479-0.05324911-1.00092446-2.84302603 0-5.68528036-0.15588802-8.58155472 0.05247742-8.58772834 0.5787917-17.38382209 0.31794967-25.65360153 2.10911725-13.58540368 2.89318754-19.74992363 12.48184033-17.80132384 25.96229075 0.74008163 4.58480381 2.42398087 9.11404342 4.26839756 13.38089756 5.7971797 13.06140449 12.27424739 25.91212846 17.75039063 39.13173609z m0 0" p-id="13426"></path></svg>