<?xml version="1.0" standalone="no"?><!DOCTYPE svg PUBLIC "-//W3C//DTD SVG 1.1//EN" "http://www.w3.org/Graphics/SVG/1.1/DTD/svg11.dtd"><svg t="1614878569289" class="icon" viewBox="0 0 1024 1024" version="1.1" xmlns="http://www.w3.org/2000/svg" p-id="2129" xmlns:xlink="http://www.w3.org/1999/xlink" width="512" height="512"><defs><style type="text/css"></style></defs><path d="M282.834239 925.17465h-90.302498a139.713299 139.713299 0 0 1-139.713299-139.713299V192.531741a139.713299 139.713299 0 0 1 139.713299-139.713299h589.521969a139.713299 139.713299 0 0 1 138.009478 139.713299V289.649522a25.557311 25.557311 0 0 0 52.818442 0v-97.117781A192.531741 192.531741 0 0 0 782.05371 0H192.531741A192.531741 192.531741 0 0 0 0 192.531741v592.92961a192.531741 192.531741 0 0 0 192.531741 192.531741h90.302498a25.557311 25.557311 0 1 0 0-52.818442z" fill="#bfbfbf" p-id="2130"></path><path d="M224.904335 218.089052a25.557311 25.557311 0 1 0 0 52.818442h504.330932a25.557311 25.557311 0 1 0 0-52.818442zM400.397869 390.174944h-163.566789a25.557311 25.557311 0 0 0 0 52.818443h163.566789a25.557311 25.557311 0 0 0 0-52.818443zM729.235267 434.474283A294.760984 294.760984 0 1 0 1022.292431 727.531447a293.057164 293.057164 0 0 0-293.057164-293.057164z m0 534.999706a241.942542 241.942542 0 1 1 240.238722-241.942542 240.238721 240.238721 0 0 1-240.238722 241.942542z" fill="#bfbfbf" p-id="2131"></path><path d="M874.060028 719.012343h-126.082733v-126.082733a25.557311 25.557311 0 0 0-52.818442 0v153.343865a25.557311 25.557311 0 0 0 25.557311 25.55731h153.343864a25.557311 25.557311 0 0 0 0-52.818442z" fill="#bfbfbf" p-id="2132"></path></svg>