<?xml version="1.0" standalone="no"?><!DOCTYPE svg PUBLIC "-//W3C//DTD SVG 1.1//EN" "http://www.w3.org/Graphics/SVG/1.1/DTD/svg11.dtd"><svg t="1614076355950" class="icon" viewBox="0 0 1024 1024" version="1.1" xmlns="http://www.w3.org/2000/svg" p-id="2703" xmlns:xlink="http://www.w3.org/1999/xlink" width="512" height="512"><defs><style type="text/css"></style></defs><path d="M16 0v1024" fill="" p-id="2704"></path><path d="M32 0v1024" fill="" p-id="2705"></path><path d="M48 0v1024" fill="" p-id="2706"></path><path d="M64 0v1024" fill="" p-id="2707"></path><path d="M80 0v1024" fill="" p-id="2708"></path><path d="M96 0v1024" fill="" p-id="2709"></path><path d="M112 0v1024" fill="" p-id="2710"></path><path d="M128 0v1024" fill="" p-id="2711"></path><path d="M144 0v1024" fill="" p-id="2712"></path><path d="M160 0v1024" fill="" p-id="2713"></path><path d="M176 0v1024" fill="" p-id="2714"></path><path d="M192 0v1024" fill="" p-id="2715"></path><path d="M208 0v1024" fill="" p-id="2716"></path><path d="M224 0v1024" fill="" p-id="2717"></path><path d="M240 0v1024" fill="" p-id="2718"></path><path d="M256 0v1024" fill="" p-id="2719"></path><path d="M272 0v1024" fill="" p-id="2720"></path><path d="M288 0v1024" fill="" p-id="2721"></path><path d="M304 0v1024" fill="" p-id="2722"></path><path d="M320 0v1024" fill="" p-id="2723"></path><path d="M336 0v1024" fill="" p-id="2724"></path><path d="M352 0v1024" fill="" p-id="2725"></path><path d="M368 0v1024" fill="" p-id="2726"></path><path d="M384 0v1024" fill="" p-id="2727"></path><path d="M400 0v1024" fill="" p-id="2728"></path><path d="M416 0v1024" fill="" p-id="2729"></path><path d="M432 0v1024" fill="" p-id="2730"></path><path d="M448 0v1024" fill="" p-id="2731"></path><path d="M464 0v1024" fill="" p-id="2732"></path><path d="M480 0v1024" fill="" p-id="2733"></path><path d="M496 0v1024" fill="" p-id="2734"></path><path d="M512 0v1024" fill="" p-id="2735"></path><path d="M528 0v1024" fill="" p-id="2736"></path><path d="M544 0v1024" fill="" p-id="2737"></path><path d="M560 0v1024" fill="" p-id="2738"></path><path d="M576 0v1024" fill="" p-id="2739"></path><path d="M592 0v1024" fill="" p-id="2740"></path><path d="M608 0v1024" fill="" p-id="2741"></path><path d="M624 0v1024" fill="" p-id="2742"></path><path d="M640 0v1024" fill="" p-id="2743"></path><path d="M656 0v1024" fill="" p-id="2744"></path><path d="M672 0v1024" fill="" p-id="2745"></path><path d="M688 0v1024" fill="" p-id="2746"></path><path d="M704 0v1024" fill="" p-id="2747"></path><path d="M720 0v1024" fill="" p-id="2748"></path><path d="M736 0v1024" fill="" p-id="2749"></path><path d="M752 0v1024" fill="" p-id="2750"></path><path d="M768 0v1024" fill="" p-id="2751"></path><path d="M784 0v1024" fill="" p-id="2752"></path><path d="M800 0v1024" fill="" p-id="2753"></path><path d="M816 0v1024" fill="" p-id="2754"></path><path d="M832 0v1024" fill="" p-id="2755"></path><path d="M848 0v1024" fill="" p-id="2756"></path><path d="M864 0v1024" fill="" p-id="2757"></path><path d="M880 0v1024" fill="" p-id="2758"></path><path d="M896 0v1024" fill="" p-id="2759"></path><path d="M912 0v1024" fill="" p-id="2760"></path><path d="M928 0v1024" fill="" p-id="2761"></path><path d="M944 0v1024" fill="" p-id="2762"></path><path d="M960 0v1024" fill="" p-id="2763"></path><path d="M976 0v1024" fill="" p-id="2764"></path><path d="M992 0v1024" fill="" p-id="2765"></path><path d="M1008 0v1024M0 16h1024" fill="" p-id="2766"></path><path d="M0 32h1024" fill="" p-id="2767"></path><path d="M0 48h1024" fill="" p-id="2768"></path><path d="M0 64h1024" fill="" p-id="2769"></path><path d="M0 80h1024" fill="" p-id="2770"></path><path d="M0 96h1024" fill="" p-id="2771"></path><path d="M0 112h1024" fill="" p-id="2772"></path><path d="M0 128h1024" fill="" p-id="2773"></path><path d="M0 144h1024" fill="" p-id="2774"></path><path d="M0 160h1024" fill="" p-id="2775"></path><path d="M0 176h1024" fill="" p-id="2776"></path><path d="M0 192h1024" fill="" p-id="2777"></path><path d="M0 208h1024" fill="" p-id="2778"></path><path d="M0 224h1024" fill="" p-id="2779"></path><path d="M0 240h1024" fill="" p-id="2780"></path><path d="M0 256h1024" fill="" p-id="2781"></path><path d="M0 272h1024" fill="" p-id="2782"></path><path d="M0 288h1024" fill="" p-id="2783"></path><path d="M0 304h1024" fill="" p-id="2784"></path><path d="M0 320h1024" fill="" p-id="2785"></path><path d="M0 336h1024" fill="" p-id="2786"></path><path d="M0 352h1024" fill="" p-id="2787"></path><path d="M0 368h1024" fill="" p-id="2788"></path><path d="M0 384h1024" fill="" p-id="2789"></path><path d="M0 400h1024" fill="" p-id="2790"></path><path d="M0 416h1024" fill="" p-id="2791"></path><path d="M0 432h1024" fill="" p-id="2792"></path><path d="M0 448h1024" fill="" p-id="2793"></path><path d="M0 464h1024" fill="" p-id="2794"></path><path d="M0 480h1024" fill="" p-id="2795"></path><path d="M0 496h1024" fill="" p-id="2796"></path><path d="M0 512h1024" fill="" p-id="2797"></path><path d="M0 528h1024" fill="" p-id="2798"></path><path d="M0 544h1024" fill="" p-id="2799"></path><path d="M0 560h1024" fill="" p-id="2800"></path><path d="M0 576h1024" fill="" p-id="2801"></path><path d="M0 592h1024" fill="" p-id="2802"></path><path d="M0 608h1024" fill="" p-id="2803"></path><path d="M0 624h1024" fill="" p-id="2804"></path><path d="M0 640h1024" fill="" p-id="2805"></path><path d="M0 656h1024" fill="" p-id="2806"></path><path d="M0 672h1024" fill="" p-id="2807"></path><path d="M0 688h1024" fill="" p-id="2808"></path><path d="M0 704h1024" fill="" p-id="2809"></path><path d="M0 720h1024" fill="" p-id="2810"></path><path d="M0 736h1024" fill="" p-id="2811"></path><path d="M0 752h1024" fill="" p-id="2812"></path><path d="M0 768h1024" fill="" p-id="2813"></path><path d="M0 784h1024" fill="" p-id="2814"></path><path d="M0 800h1024" fill="" p-id="2815"></path><path d="M0 816h1024" fill="" p-id="2816"></path><path d="M0 832h1024" fill="" p-id="2817"></path><path d="M0 848h1024" fill="" p-id="2818"></path><path d="M0 864h1024" fill="" p-id="2819"></path><path d="M0 880h1024" fill="" p-id="2820"></path><path d="M0 896h1024" fill="" p-id="2821"></path><path d="M0 912h1024" fill="" p-id="2822"></path><path d="M0 928h1024" fill="" p-id="2823"></path><path d="M0 944h1024" fill="" p-id="2824"></path><path d="M0 960h1024" fill="" p-id="2825"></path><path d="M0 976h1024" fill="" p-id="2826"></path><path d="M0 992h1024" fill="" p-id="2827"></path><path d="M0 1008h1024" fill="" p-id="2828"></path><path d="M1024 938.667c0 47.147-38.187 85.333-85.333 85.333H85.334C38.187 1024 0.001 985.813 0.001 938.667V85.334C0.001 38.187 38.188 0.001 85.334 0.001h853.333C985.814 0.001 1024 38.188 1024 85.334v853.333z" fill="#B49FD4" p-id="2829"></path><path d="M382.592 598.699c16.683 16.683 16.683 43.691 0 60.331l-181.76 181.76c-16.683 16.683-43.691 16.683-60.331 0-16.683-16.683-16.683-43.691 0-60.331l181.76-181.76c16.683-16.64 43.691-16.64 60.331 0zM903.296 440.704c16.683 16.683 16.683 43.691 0 60.331L563.499 840.832c-16.683 16.683-43.691 16.683-60.331 0-16.683-16.683-16.683-43.691 0-60.331l339.797-339.797c16.683-16.683 43.691-16.683 60.331 0z" fill="#FFFFFF" p-id="2830"></path><path d="M563.413 840.832c-16.683 16.683-43.691 16.683-60.331 0l-181.76-181.76c-16.683-16.683-16.683-43.691 0-60.331 16.683-16.683 43.691-16.683 60.331 0l181.76 181.76c16.683 16.64 16.683 43.648 0 60.331zM341.333 256c0 47.128-38.205 85.333-85.333 85.333S170.667 303.128 170.667 256s38.205-85.333 85.333-85.333 85.333 38.205 85.333 85.333z" fill="#FFFFFF" p-id="2831"></path></svg>