<?xml version="1.0" standalone="no"?><!DOCTYPE svg PUBLIC "-//W3C//DTD SVG 1.1//EN" "http://www.w3.org/Graphics/SVG/1.1/DTD/svg11.dtd"><svg t="1614090341563" class="icon" viewBox="0 0 1024 1024" version="1.1" xmlns="http://www.w3.org/2000/svg" p-id="7152" xmlns:xlink="http://www.w3.org/1999/xlink" width="512" height="512"><defs><style type="text/css"></style></defs><path d="M113.792 0h796.416C972.8 0 1024 51.2 1024 113.792v796.416C1024 972.8 972.8 1024 910.208 1024H113.792C51.2 1024 0 972.8 0 910.208V113.792C0 51.2 51.2 0 113.792 0zM408.96 266.88v307.2c0 33.92-6.4 58.24-17.92 73.6-12.16 15.36-31.36 23.68-58.24 23.68-47.36 0-71.04-27.52-71.04-81.92v-14.72H192v15.36c0 44.8 12.16 79.36 36.48 104.96 23.04 24.96 57.6 37.76 103.04 37.76 52.48 0 90.88-14.08 115.2-40.96 21.12-25.6 32-64 32-115.2V266.88H408.96zM685.44 256c-39.68 0-72.32 8.32-97.28 25.6-24.96 16.64-37.12 40.32-37.12 70.4 0 28.16 12.8 50.56 38.4 66.56 15.36 10.24 42.88 19.84 81.92 28.8 33.92 7.68 56.32 14.08 66.56 19.2 19.2 8.96 29.44 21.76 29.44 37.76 0 29.44-26.88 44.8-79.36 44.8-25.6 0-43.52-4.48-55.04-12.8-11.52-8.96-19.84-24.96-23.68-47.36H542.72c7.68 76.8 56.32 115.84 147.2 115.84 97.92 0 147.2-35.2 147.2-104.96 0-29.44-13.44-52.48-39.68-69.12-17.92-11.52-46.08-22.4-83.84-31.36-33.28-8.32-55.04-14.72-66.56-19.84-17.92-8.32-26.88-17.92-26.88-29.44 0-12.8 5.76-23.04 17.92-29.44 10.24-6.4 25.6-8.96 46.08-8.96 23.04 0 40.96 3.84 52.48 11.52 10.88 7.04 18.56 19.2 23.68 37.12h65.92C818.56 290.56 771.2 256 685.44 256z" fill="#F58923" p-id="7153"></path></svg>