<?xml version="1.0" standalone="no"?><!DOCTYPE svg PUBLIC "-//W3C//DTD SVG 1.1//EN" "http://www.w3.org/Graphics/SVG/1.1/DTD/svg11.dtd"><svg t="1614405989274" class="icon" viewBox="0 0 1024 1024" version="1.1" xmlns="http://www.w3.org/2000/svg" p-id="1839" xmlns:xlink="http://www.w3.org/1999/xlink" width="512" height="512"><defs><style type="text/css"></style></defs><path d="M843.52 319.552h-22.656v-39.36l-0.128-1.92a16.192 16.192 0 0 0-4.48-11.264L635.264 70.4a18.688 18.688 0 0 0-4.992-3.776c-1.216-0.512-2.432-1.088-3.648-1.472-0.384-0.128-0.64-0.256-0.896-0.256a22.144 22.144 0 0 0-4.16-0.576H176.256c-20.288 0-36.864 15.744-36.864 35.008v220.16h-22.592a54.144 54.144 0 0 0-37.248 14.656 49.024 49.024 0 0 0-15.488 35.392v388.032c0 27.584 23.552 50.112 52.608 50.112h22.592v113.92c0 19.264 16.576 35.008 36.864 35.008h607.872c20.352 0 36.864-15.744 36.864-34.944v-113.984h22.592c29.056 0 52.608-22.4 52.608-50.112V369.472a48.512 48.512 0 0 0-15.424-35.392 53.76 53.76 0 0 0-37.12-14.528zM176.192 99.392H602.88v178.944c0 4.672 1.92 9.152 5.44 12.352 3.456 3.2 8.192 5.12 12.992 5.12h162.688v23.616H176.256V99.392z m607.872 708.224v104.576H176.256v-104.576h607.872zM855.04 456.32v43.52h-112.64l-4.992 60.928h2.56c4.864-8 21.76-21.248 49.792-21.248 42.432 0 79.36 28.48 79.36 80.64 0 53.888-38.208 88.512-94.4 88.512-52.928 0-87.68-30.656-88.96-70.144h47.616c3.456 17.536 22.144 27.52 42.048 27.52a42.368 42.368 0 0 0 43.328-44.032c0-25.216-19.392-41.664-43.136-41.664a43.904 43.904 0 0 0-38.976 21.12h-45.824l10.112-145.152h154.112z m-668.16 0.192l68.224 149.888h1.792l68.16-149.888h53.44V704h-47.296V545.28h-2.56l-56.512 124.288h-32.832l-56.704-124.352h-2.56V704h-46.72V456.576h53.632z m345.152 0c79.936 0 110.912 50.048 110.912 122.88 0 72.896-30.784 124.544-110.912 124.544H439.36V456.576z m-7.616 43.904h-32.448v159.488h32.448c40.448 0 64.704-18.88 64.704-79.232 0-44.928-14.72-80.256-64.704-80.256z" fill="#1872FF" p-id="1840"></path></svg>