<?xml version="1.0" standalone="no"?><!DOCTYPE svg PUBLIC "-//W3C//DTD SVG 1.1//EN" "http://www.w3.org/Graphics/SVG/1.1/DTD/svg11.dtd"><svg t="1614341245993" class="icon" viewBox="0 0 1024 1024" version="1.1" xmlns="http://www.w3.org/2000/svg" p-id="5116" xmlns:xlink="http://www.w3.org/1999/xlink" width="64" height="64"><defs><style type="text/css"></style></defs><path d="M408.576 5.12v431.104c0 19.456 16.384 35.84 35.84 35.84h8.192c17.408 0 33.792-7.168 46.08-19.456l82.944-82.944c13.312-13.312 33.792-13.312 46.08 0l83.968 82.944c12.288 12.288 28.672 19.456 46.08 19.456h10.24c9.216 0 18.432-4.096 25.6-10.24 7.168-7.168 10.24-15.36 10.24-25.6V5.12h65.536c35.84 0 65.536 29.696 65.536 65.536v886.784c0 17.408-7.168 33.792-19.456 46.08-12.288 12.288-28.672 19.456-46.08 19.456H146.432c-17.408 0-33.792-7.168-46.08-19.456-12.288-12.288-19.456-28.672-19.456-46.08V70.656c0-17.408 7.168-33.792 19.456-46.08C112.64 12.288 129.024 5.12 146.432 5.12h262.144z m65.536 0H737.28v379.904l-84.992-84.992c-25.6-25.6-67.584-25.6-93.184 0l-84.992 84.992V5.12z m0 0" p-id="5117"></path></svg>