<?xml version="1.0" standalone="no"?><!DOCTYPE svg PUBLIC "-//W3C//DTD SVG 1.1//EN" "http://www.w3.org/Graphics/SVG/1.1/DTD/svg11.dtd"><svg t="1614048166894" class="icon" viewBox="0 0 1024 1024" version="1.1" xmlns="http://www.w3.org/2000/svg" p-id="4679" xmlns:xlink="http://www.w3.org/1999/xlink" width="128" height="128"><defs><style type="text/css"></style></defs><path d="M751.3088 459.8784c-145.1008 0-262.4512 117.3504-262.4512 262.4512 0 145.1008 117.3504 263.0656 262.4512 263.0656 145.1008 0 262.4512-117.9648 262.4512-263.0656S896.4096 459.8784 751.3088 459.8784zM585.728 562.3808h30.0032c0 0.7168-0.3072 2.3552 0 2.4576 14.2336 7.168 25.1904 19.968 42.9056 20.8896 29.184 1.4336 51.0976 17.3056 73.0112 33.6896 36.0448 26.9312 57.6512 63.488 74.24 103.6288 4.1984 10.24 9.3184 20.6848 15.36 30.0032 3.584 5.5296 9.216 10.9568 15.36 13.5168 28.3648 11.6736 52.8384 28.3648 74.8544 52.736-18.1248 3.7888-34.304 7.168-52.736 11.0592 3.584 3.8912 5.3248 6.4512 7.9872 8.6016 15.9744 13.0048 32.256 26.4192 48.4352 39.2192 1.9456 1.536 5.0176 2.048 7.3728 3.072v1.8432c-14.336-7.3728-28.9792-13.9264-42.9056-22.1184-10.4448-6.0416-21.1968-13.1072-29.3888-21.504-12.3904-12.4928-10.5472-16.4864 6.7584-20.2752 11.776-2.56 24.064-3.7888 36.7616-5.5296-0.6144-1.7408-0.9216-3.6864-1.8432-4.3008-18.6368-12.8-36.2496-27.5456-59.4944-32.4608-12.9024-2.7648-19.7632-11.0592-25.1904-22.1184-13.5168-27.7504-26.0096-55.9104-42.2912-82.1248-21.1968-34.0992-52.4288-58.4704-91.3408-73.0112-1.7408-0.6144-3.7888-1.9456-5.5296-1.8432-23.1424 2.048-39.8336-12.288-58.88-20.8896-2.7648-1.2288-5.7344-3.072-8.6016-3.072-3.584 0-8.4992 0.8192-10.4448 3.072-1.8432 2.1504-1.3312 6.8608 0 9.8304 2.2528 5.0176 6.4512 9.216 9.216 14.1312 7.68 13.5168 14.6432 26.8288 22.1184 40.448 7.5776 13.9264 15.7696 28.0576 22.7328 42.2912 1.8432 3.6864 2.048 9.728 0.6144 13.5168-7.68 19.5584-9.8304 38.912-6.144 59.4944 2.048 11.264 5.3248 21.7088 16.5888 30.6176 7.0656-17.1008 2.3552-36.1472 19.0464-47.2064 12.288 21.9136 24.8832 43.9296 37.376 66.2528-0.8192 0.7168-2.2528 1.2288-3.072 1.8432-11.3664-14.0288-22.2208-27.8528-34.304-42.9056-1.1264 6.4512-1.6384 12.4928-3.6864 17.8176-2.048 5.12-4.9152 11.9808-9.216 13.5168-4.1984 1.4336-12.1856-1.4336-15.9744-4.9152-13.1072-12.288-17.408-29.184-17.2032-45.9776 0.2048-14.9504 2.8672-30.1056 6.144-44.7488 1.6384-7.4752 1.2288-12.0832-3.072-19.0464-8.4992-13.9264-14.4384-29.3888-21.504-44.1344-3.7888-7.9872-6.7584-16.5888-12.288-23.3472-12.6976-15.6672-25.3952-30.9248-11.776-52.0192z m65.6384 56.32c3.4816 1.6384 7.9872 2.2528 9.8304 4.9152 2.1504 3.1744 1.7408 8.0896 2.4576 12.288-1.2288 0.1024-2.3552 0.512-3.6864 0.6144-3.4816-5.0176-6.9632-10.3424-10.4448-15.36 0.512-0.8192 1.3312-1.536 1.8432-2.4576z" p-id="4680" fill="#1296db"></path><path d="M469.1968 38.6048C207.0528 41.6768 1.3312 114.688 10.5472 201.728c9.216 87.1424 229.5808 155.7504 491.8272 152.6784s467.2512-75.9808 458.0352-163.1232-228.9664-155.648-491.2128-152.6784zM10.5472 215.8592v172.3392c-0.4096 3.6864-0.4096 7.8848 0 11.6736 9.216 87.1424 229.5808 155.136 491.8272 152.064h1.8432c39.3216-52.6336 96.1536-93.5936 165.5808-113.4592 84.0704-23.9616 170.3936-12.288 241.5616 25.8048 29.0816-19.5584 46.6944-41.472 49.0496-64.4096h0.6144V226.9184c-8.704 82.1248-207.7696 149.0944-458.6496 152.064-262.144 3.072-481.9968-64.9216-491.2128-152.064-0.4096-3.6864-0.4096-7.3728 0-11.0592h-0.6144z m0 201.728v172.9536c-0.4096 3.6864-0.4096 7.2704 0 11.0592 8.4992 80.6912 198.4512 144.7936 434.7904 151.4496-4.7104-60.8256 10.0352-120.4224 39.8336-171.7248-254.464-0.1024-465.1008-67.4816-474.0096-152.6784-0.4096-3.6864-0.4096-7.3728 0-11.0592h-0.6144z m950.4768 11.6736c-1.7408 16.7936-11.776 32.768-28.16 47.8208 9.6256 6.144 19.2512 12.3904 28.16 19.6608v-67.4816zM10.5472 619.9296v172.3392c-0.4096 3.6864-0.4096 7.2704 0 11.0592 9.216 87.1424 229.5808 155.7504 491.8272 152.6784 15.2576-0.2048 30.5152-0.6144 45.3632-1.2288-41.3696-36.1472-73.8304-83.1488-90.7264-138.5472-3.3792-11.0592-5.9392-22.016-7.9872-33.0752-237.9776-6.0416-429.2608-70.9632-437.8624-152.064-0.4096-3.6864-0.4096-7.3728 0-11.0592h-0.6144z" p-id="4681" fill="#1296db"></path></svg>