<?xml version="1.0" standalone="no"?><!DOCTYPE svg PUBLIC "-//W3C//DTD SVG 1.1//EN" "http://www.w3.org/Graphics/SVG/1.1/DTD/svg11.dtd"><svg t="1614341183104" class="icon" viewBox="0 0 1024 1024" version="1.1" xmlns="http://www.w3.org/2000/svg" p-id="3195" xmlns:xlink="http://www.w3.org/1999/xlink" width="64" height="64"><defs><style type="text/css"></style></defs><path d="M874.17344 1018.88H149.82656c-44.7744 0-72.43776-25.74336-72.43776-72.41216V77.53216C77.3888 33.12128 105.04704 5.12 149.82656 5.12h160.98304v362.05568L383.24736 512 455.68 367.17568 455.9616 5.12h418.21184c40.17664 0 72.43264 34.7904 72.43264 72.41216v868.93568c0.00512 48.93184-20.93568 72.41216-72.43264 72.41216z m-443.31008-121.0624c25.6768 26.30656 66.84672-36.77184 145.22368-39.6032 1.26976 0 2.19136-0.70656 3.39456-0.98816-3.53792 0-7.07584-0.56832-9.47712-2.89792l-102.00064-101.19168c-4.66944-4.66432-3.46624-12.16 0.84992-18.7392-3.53792 4.736-6.65088 10.04032-7.77728 16.54784-15.85152 90.93632-54.7584 121.76896-30.21312 146.87232z m56.94464-182.656c-4.10112 3.8912-10.112 8.56064-15.488 14.49984 7.21408-6.08256 16.6912-7.21408 22.0672-1.98144l102.00576 101.26336c4.24448 4.24448 3.32288 10.89024 0.07168 17.03936 3.32288-3.8912 6.36928-7.84896 9.05216-10.46528l240.22016-224.79872c-6.15424 2.75968-12.66176 3.39456-16.768-0.70656l-102.00064-101.19168c-4.45952-4.38272-3.46624-11.38176 0.20992-17.75104L487.808 715.1616z m359.55712-221.26592c-28.01152-28.63616-70.73792-32.38912-103.49056-13.43488 3.53792 0.07168 7.00416 0.5632 9.40544 2.9696l102.00576 101.19168c2.688 2.688 3.6096 6.50752 3.2512 10.46528 19.94752-31.04256 16.4864-72.90368-11.17184-101.19168z" fill="#536dfe" p-id="3196"></path></svg>