<?xml version="1.0" standalone="no"?><!DOCTYPE svg PUBLIC "-//W3C//DTD SVG 1.1//EN" "http://www.w3.org/Graphics/SVG/1.1/DTD/svg11.dtd"><svg t="1614090220305" class="icon" viewBox="0 0 1024 1024" version="1.1" xmlns="http://www.w3.org/2000/svg" p-id="3146" xmlns:xlink="http://www.w3.org/1999/xlink" width="512" height="512"><defs><style type="text/css"></style></defs><path d="M615.781 181.412C634.2 248.947 689.455 461.785 451.55 526.25c164.232-91.582 181.848-251.654 95.162-360.697-204.14-53.722-434.372 12.79-406.76 612.93 6.387 14.075 22.413 17.85 44.016 16.885 12.28-135.07 111.68-293.54 164.745-242.514 39.906 38.373 31.115 182.525 29.162 301.784 28.384 15.081 89.783 21.83 115.628 0.755-12.791-199.703 188.28-198.168 161.264-0.019 27.785 19.047 92.936 18.365 117.669-0.055 218.368-377.675 52.09-587.954-156.654-673.907z m-333.07 187.256c-12.715 0-23.023-10.308-23.023-23.024 0-12.715 10.308-23.023 23.023-23.023s23.024 10.308 23.024 23.023c0 12.716-10.308 23.024-23.024 23.024z" p-id="3147" fill="#1296db"></path></svg>