<?xml version="1.0" standalone="no"?><!DOCTYPE svg PUBLIC "-//W3C//DTD SVG 1.1//EN" "http://www.w3.org/Graphics/SVG/1.1/DTD/svg11.dtd"><svg t="1614341232093" class="icon" viewBox="0 0 1024 1024" version="1.1" xmlns="http://www.w3.org/2000/svg" p-id="4285" xmlns:xlink="http://www.w3.org/1999/xlink" width="64" height="64"><defs><style type="text/css"></style></defs><path d="M218.368 116.992V55.232c0-29.952 24.512-54.464 54.464-54.464 29.952 0 54.4 24.512 54.4 54.4v61.824h369.28V55.232c0-29.952 24.448-54.464 54.4-54.464 29.952 0 54.464 24.512 54.464 54.4v61.824h108.928c59.904 0 108.864 49.024 108.864 108.928v684.352c0 59.904-48.96 108.864-108.864 108.864H109.44a109.248 109.248 0 0 1-108.928-108.864V225.92c0-59.904 49.024-108.928 108.928-108.928h108.864z m521.536 617.088a40.96 40.96 0 0 0 40.832-40.832 40.96 40.96 0 0 0-40.832-40.832H283.84a40.96 40.96 0 0 0-40.832 40.832 40.96 40.96 0 0 0 40.832 40.832h456.064z m0-244.992a40.96 40.96 0 0 0 40.832-40.832 40.96 40.96 0 0 0-40.832-40.896H283.84a40.96 40.96 0 0 0-40.832 40.896 40.96 40.96 0 0 0 40.832 40.832h456.064z" p-id="4286"></path></svg>