<?xml version="1.0" standalone="no"?><!DOCTYPE svg PUBLIC "-//W3C//DTD SVG 1.1//EN" "http://www.w3.org/Graphics/SVG/1.1/DTD/svg11.dtd"><svg t="1614400630315" class="icon" viewBox="0 0 1026 1024" version="1.1" xmlns="http://www.w3.org/2000/svg" p-id="2597" width="513" height="512" xmlns:xlink="http://www.w3.org/1999/xlink"><defs><style type="text/css"></style></defs><path d="M859.2 407.2c-1.6-35.2 3.2-66.4-12.8-92.8-38.4-65.6-134.4-104-326.4-104v5.6h-4 4v-5.6c-192 0-292.8 38.4-331.2 104.8-15.2 27.2-13.6 57.6-16 92.8-1.6 28-14.4 57.6-8.8 89.6 6.4 41.6 8.8 83.2 15.2 121.6 4.8 31.2 48 57.6 52 87.2 11.2 81.6 96 119.2 288 119.2v6.4h-4.8 5.6v-6.4c192 0 273.6-37.6 284-119.2 4-30.4 44-56 48.8-87.2 6.4-38.4 8.8-80 15.2-121.6 5.6-32-7.2-62.4-8.8-90.4z" fill="#EFCCA3" p-id="2598"></path><path d="M516.8 436c34.4 0.8 58.4 22.4 80.8 42.4 26.4 23.2 71.2 39.2 89.6 59.2 18.4 20 42.4 40 51.2 71.2 8.8 31.2 11.2 71.2 11.2 81.6 0 10.4 5.6 8 21.6 0 37.6-18.4 79.2-68 79.2-68-4.8 31.2-45.6 59.2-49.6 88.8C791.2 792.8 712 832 516 832h-0.8 4.8" fill="#CCAC8D" p-id="2599"></path><path d="M643.2 373.6c7.2 24.8 32.8 108.8-16.8 80.8 0 0 20.8 12 33.6 57.6 13.6 45.6 46.4 51.2 46.4 51.2s53.6 10.4 93.6-24c33.6-28.8 39.2-80 24.8-119.2-14.4-38.4-40-50.4-77.6-58.4-37.6-8.8-112.8-16-104 12z" fill="#CCAC8D" p-id="2600"></path><path d="M738.4 464.8m-70.4 0a70.4 70.4 0 1 0 140.8 0 70.4 70.4 0 1 0-140.8 0Z" p-id="2601"></path><path d="M720 433.6m-18.4 0a18.4 18.4 0 1 0 36.8 0 18.4 18.4 0 1 0-36.8 0Z" fill="#FFFFFF" p-id="2602"></path><path d="M631.2 461.6s63.2 43.2 97.6 85.6c34.4 42.4 33.6 50.4 33.6 50.4l-24.8 11.2s-35.2-66.4-78.4-91.2c-44-24.8-48.8-45.6-48.8-45.6l20.8-10.4z" fill="#EFCCA3" p-id="2603"></path><path d="M519.2 436c-34.4 0.8-60 22.4-83.2 42.4-26.4 23.2-72.8 39.2-91.2 59.2-18.4 20-43.2 40-52 71.2-8.8 31.2-12 71.2-12 81.6 0 10.4 1.6 11.2-21.6 0-37.6-17.6-79.2-68-79.2-68 4.8 31.2 45.6 59.2 49.6 88.8C240.8 792.8 320 832 516 832h4" fill="#CCAC8D" p-id="2604"></path><path d="M704.8 571.2C666.4 524 604.8 480 519.2 480h-0.8c-85.6 0-147.2 44-185.6 91.2-40 48.8-36.8 68-36.8 114.4 0 168 59.2 120 98.4 140.8 40 20 81.6 13.6 124 13.6h0.8c43.2 0 84 5.6 124-14.4 39.2-20 98.4 29.6 98.4-138.4 0.8-46.4 3.2-67.2-36.8-116z" fill="#56332B" p-id="2605"></path><path d="M515.2 521.6s-5.6 77.6-16.8 92.8l20.8-4.8-4-88z" fill="#442823" p-id="2606"></path><path d="M520.8 521.6s5.6 77.6 16.8 92.8l-20.8-4.8 4-88z" fill="#442823" p-id="2607"></path><path d="M453.6 503.2c-8-18.4 20.8-48 66.4-48.8 45.6 0 74.4 29.6 66.4 48.8-8 19.2-36.8 24.8-66.4 25.6-28.8-0.8-58.4-6.4-66.4-25.6z" fill="#56332B" p-id="2608"></path><path d="M520 521.6c0-3.2 27.2-4 41.6-13.6 0 0-29.6 9.6-36 5.6-6.4-3.2-8-12.8-8-12.8s-2.4 9.6-7.2 12.8c-5.6 3.2-39.2-5.6-39.2-5.6s44.8 11.2 44.8 13.6c0 2.4-0.8 10.4-0.8 16 0 20 0 69.6 3.2 73.6 4.8 7.2 3.2-53.6 3.2-73.6-0.8-6.4-0.8-12.8-1.6-16z" p-id="2609"></path><path d="M521.6 628.8c13.6 0 37.6 9.6 59.2 24.8-20.8-23.2-45.6-39.2-59.2-39.2-14.4 0-44.8 17.6-66.4 43.2 22.4-17.6 51.2-28.8 66.4-28.8z" fill="#7F4A41" p-id="2610"></path><path d="M516 770.4c-30.4 0-60-9.6-87.2-16.8-5.6-1.6-11.2 2.4-16.8 0.8-50.4-16-91.2-43.2-116-77.6v8c0 168 59.2 120.8 98.4 140.8 40 20 81.6 13.6 124 13.6h0.8c43.2 0 84 5.6 124-14.4 39.2-20 98.4 28.8 98.4-139.2 0-6.4 0-12.8 0.8-18.4-23.2 37.6-65.6 67.2-118.4 84.8-4.8 1.6-16-2.4-20.8-1.6-28.8 9.6-54.4 20-87.2 20z" fill="#442823" p-id="2611"></path><path d="M440 680s-20 60-6.4 86.4l-18.4-8s13.6-60.8 24.8-78.4zM598.4 680s20 60 6.4 86.4l18.4-8s-14.4-60.8-24.8-78.4z" fill="#442823" p-id="2612"></path><path d="M388.8 373.6c-7.2 24.8-32.8 108.8 16.8 80.8 0 0-20.8 12-33.6 57.6s-46.4 51.2-46.4 51.2-53.6 10.4-93.6-24c-33.6-28.8-39.2-80-24.8-119.2s40-50.4 77.6-58.4c37.6-8.8 112-16 104 12z" fill="#CCAC8D" p-id="2613"></path><path d="M519.2 614.4c21.6 0 88.8 46.4 89.6 103.2v-3.2c0-59.2-54.4-106.4-89.6-106.4-35.2 0-89.6 48-89.6 106.4v3.2c0.8-56.8 68-103.2 89.6-103.2z" p-id="2614"></path><path d="M527.469866 493.614511a12 6.4 75.535 1 0 12.394246-3.197293 12 6.4 75.535 1 0-12.394246 3.197293Z" fill="#331712" p-id="2615"></path><path d="M492.986886 490.158823a6.4 12 17.235 1 0 12.225248 3.792532 6.4 12 17.235 1 0-12.225248-3.792532Z" fill="#331712" p-id="2616"></path><path d="M297.6 464.8m-70.4 0a70.4 70.4 0 1 0 140.8 0 70.4 70.4 0 1 0-140.8 0Z" p-id="2617"></path><path d="M316 433.6m-18.4 0a18.4 18.4 0 1 0 36.8 0 18.4 18.4 0 1 0-36.8 0Z" fill="#FFFFFF" p-id="2618"></path><path d="M540 465.6c0-0.8-18.4 8-23.2 8.8-4.8-0.8-23.2-9.6-23.2-8.8h46.4z" fill="#7F4A41" p-id="2619"></path><path d="M400 461.6s-63.2 43.2-97.6 85.6c-34.4 42.4-33.6 50.4-33.6 50.4l24.8 11.2s35.2-66.4 78.4-91.2 48.8-45.6 48.8-45.6L400 461.6z" fill="#EFCCA3" p-id="2620"></path><path d="M261.6 333.6S240 392.8 192 417.6c0 0 75.2-8.8 69.6-84zM766.4 333.6s21.6 59.2 69.6 84c0 0-75.2-8.8-69.6-84zM629.6 444s-47.2-49.6-110.4-51.2h0.8 0.8c-64 1.6-110.4 51.2-110.4 51.2 55.2-38.4 102.4-37.6 110.4-37.6-0.8 0 53.6-0.8 108.8 37.6zM574.4 340s-24-33.6-56-34.4h1.6c-24 0.8-55.2 34.4-55.2 34.4 27.2-26.4 55.2-25.6 55.2-25.6s26.4-0.8 54.4 25.6zM297.6 585.6s-37.6 18.4-64.8 7.2H232c-24-13.6-36-54.4-36-54.4s24 72 101.6 47.2zM736 585.6s37.6 18.4 64.8 7.2c32-13.6 36.8-54.4 36.8-54.4s-24 72-101.6 47.2z" fill="#CCAC8D" p-id="2621"></path><path d="M340.8 329.6c20.8-4 55.2-4.8 82.4 4 34.4 12 6.4 56 13.6 58.4 7.2 2.4 16.8-30.4 80.8-27.2 64.8 3.2 72 32 80.8 27.2s-8.8-80 88-62.4c0 0-101.6-27.2-96.8 46.4 0 0-58.4-44.8-140-4.8 0.8 0 21.6-68.8-108.8-41.6zM695.2 329.6c1.6 0 2.4 0.8 3.2 0.8 0.8 0-0.8-0.8-3.2-0.8zM695.2 329.6zM312.8 231.2S226.4 340 213.6 381.6c-12.8 42.4-22.4 216-33.6 240.8l-40-171.2 73.6-178.4 99.2-41.6zM719.2 231.2s86.4 108.8 99.2 150.4c12.8 42.4 22.4 216 33.6 240.8l40-171.2-73.6-178.4-99.2-41.6z" fill="#CCAC8D" p-id="2622"></path><path d="M715.2 231.2s92.8 77.6 120 167.2c27.2 89.6 16 198.4 36.8 212 29.6 19.2 63.2-95.2 74.4-107.2 17.6-19.2 76-68 80-76.8 4-8.8-118.4-142.4-172-168.8-64.8-30.4-144.8-32.8-139.2-26.4z" fill="#56332B" p-id="2623"></path><path d="M794.4 279.2s109.6 140 108 314.4l44-89.6c-0.8 0-39.2-114.4-152-224.8z" fill="#442823" p-id="2624"></path><path d="M312.8 231.2s-92.8 77.6-120 167.2-16 198.4-36.8 212c-29.6 19.2-63.2-95.2-74.4-107.2C64 484 5.6 435.2 1.6 426.4-2.4 417.6 120 284 173.6 257.6c64.8-30.4 144.8-32.8 139.2-26.4z" fill="#56332B" p-id="2625"></path><path d="M233.6 279.2S124 419.2 125.6 593.6L82.4 504s38.4-114.4 151.2-224.8z" fill="#442823" p-id="2626"></path><path d="M174.4 596.8s8 43.2 20.8 56.8 4-10.4 4-10.4-13.6-7.2-11.2-62.4-13.6 16-13.6 16zM856.8 596.8s-8 43.2-20.8 56.8-4-10.4-4-10.4 13.6-7.2 11.2-62.4 13.6 16 13.6 16z" fill="#CCAC8D" p-id="2627"></path><path d="M436 564m-6.4 0a6.4 6.4 0 1 0 12.8 0 6.4 6.4 0 1 0-12.8 0Z" fill="#442823" p-id="2628"></path><path d="M399.2 602.4m-6.4 0a6.4 6.4 0 1 0 12.8 0 6.4 6.4 0 1 0-12.8 0Z" fill="#442823" p-id="2629"></path><path d="M387.2 564m-6.4 0a6.4 6.4 0 1 0 12.8 0 6.4 6.4 0 1 0-12.8 0Z" fill="#442823" p-id="2630"></path><path d="M592 564m-6.4 0a6.4 6.4 0 1 0 12.8 0 6.4 6.4 0 1 0-12.8 0Z" fill="#442823" p-id="2631"></path><path d="M628.8 602.4m-6.4 0a6.4 6.4 0 1 0 12.8 0 6.4 6.4 0 1 0-12.8 0Z" fill="#442823" p-id="2632"></path><path d="M640.8 564m-6.4 0a6.4 6.4 0 1 0 12.8 0 6.4 6.4 0 1 0-12.8 0Z" fill="#442823" p-id="2633"></path></svg>