<?xml version="1.0" standalone="no"?><!DOCTYPE svg PUBLIC "-//W3C//DTD SVG 1.1//EN" "http://www.w3.org/Graphics/SVG/1.1/DTD/svg11.dtd"><svg t="1614069906728" class="icon" viewBox="0 0 1024 1024" version="1.1" xmlns="http://www.w3.org/2000/svg" p-id="2161" xmlns:xlink="http://www.w3.org/1999/xlink" width="512" height="512"><defs><style type="text/css"></style></defs><path d="M575.104 727.893333a105.173333 105.173333 0 0 1-110.634667 6.528c-37.162667-17.834667-347.605333-147.498667-347.605333-147.498666v94.037333c0 8.106667 11.349333 16.64 32.341333 26.709333 42.496 20.352 278.101333 115.370667 315.093334 133.077334a105.685333 105.685333 0 0 0 110.677333-6.528c47.232-24.618667 268.458667-115.456 311.210667-137.984 21.76-11.306667 31.317333-20.224 31.317333-28.16v-92.842667s-295.253333 127.573333-342.357333 152.32l-0.042667 0.384z" fill="#FF3B3B" p-id="2162"></path><path d="M575.104 595.84a105.173333 105.173333 0 0 1-110.634667 6.528c-37.162667-17.92-347.605333-147.882667-347.605333-147.882667v94.037334c0 8.106667 11.349333 16.64 32.341333 26.709333 42.496 20.437333 278.101333 115.498667 315.093334 133.418667a105.642667 105.642667 0 0 0 110.677333-6.485334c47.232-24.661333 268.458667-115.498667 311.210667-138.026666 21.76-11.306667 31.317333-20.181333 31.317333-28.16v-92.8s-295.253333 127.658667-342.357333 152.405333l-0.042667 0.256z" fill="#FF3B3B" p-id="2163"></path><path d="M917.802667 319.616c0.426667-8.106667-10.410667-15.36-31.744-23.125333-41.642667-15.317333-261.632-102.826667-303.786667-118.272a126.165333 126.165333 0 0 0-108.885333 2.901333C424.106667 198.826667 189.568 290.773333 148.053333 307.114667c-21.034667 8.234667-31.232 15.914667-30.634666 24.149333V423.68s310.229333 130.688 347.605333 148.48a105.642667 105.642667 0 0 0 110.634667-6.528c47.146667-24.618667 342.570667-154.581333 342.570666-154.581333l-0.426666-91.477334z m-103.466667 2.517333l-121.685333 47.957334-109.653334-43.392 121.472-48.042667 109.866667 43.477333z m-224.725333 45.568l-56.192 82.218667L404.053333 396.245333l185.514667-28.544zM492.16 242.773333l-17.92-33.152 55.978667 21.802667 52.650666-17.322667-14.336 34.133334 53.76 20.224-69.376 7.082666-15.616 37.546667-25.045333-41.728-80.384-6.912 59.989333-21.504 0.298667-0.170667zM354.133333 289.322667c54.741333 0 99.242667 17.066667 99.242667 38.4s-44.373333 38.485333-99.242667 38.485333c-54.912 0-99.285333-17.109333-99.285333-38.442667s44.373333-38.442667 99.285333-38.442666z" fill="#FF3B3B" p-id="2164"></path></svg>