<?xml version="1.0" standalone="no"?><!DOCTYPE svg PUBLIC "-//W3C//DTD SVG 1.1//EN" "http://www.w3.org/Graphics/SVG/1.1/DTD/svg11.dtd"><svg t="1614341325767" class="icon" viewBox="0 0 1024 1024" version="1.1" xmlns="http://www.w3.org/2000/svg" p-id="8022" xmlns:xlink="http://www.w3.org/1999/xlink" width="64" height="64"><defs><style type="text/css"></style></defs><path d="M376.32 256.979h246.963c76.426 0 134.722-165.73 134.722-165.73 0-49.632-4.971-87.182-89.83-89.824-84.828-2.673-105.154 59.32-166.123 59.32-62.49 0-93.747-48.737-170.644-59.32-76.872-10.64-89.805 40.197-89.805 89.825-0.005 0.005 58.265 165.729 134.717 165.729zM636.764 308.21H376.32c-288.414 0-359.244 566.609-359.244 566.609 0 74.43 60.318 149.181 134.717 149.181h709.472c74.4 0 134.718-74.752 134.718-149.181-0.005 0-70.856-566.61-359.219-566.61z m29.568 435.465c17.377 0 31.457 14.106 31.457 31.478s-14.08 31.483-31.457 31.483H538.624v82.59c0 17.373-14.08 31.478-31.432 31.478a31.478 31.478 0 0 1-31.457-31.478v-82.59H347.203c-17.377 0-31.457-14.11-31.457-31.483s14.08-31.478 31.457-31.478h128.532V703.73H347.203a31.452 31.452 0 0 1-31.457-31.462c0-17.378 14.08-31.509 31.457-31.509h86.886l-88.955-158.085a31.483 31.483 0 0 1 11.51-42.992 31.457 31.457 0 0 1 42.967 11.484l107.105 189.593h5.417l107.105-189.593a31.427 31.427 0 0 1 42.942-11.484 31.467 31.467 0 0 1 11.54 42.992l-88.96 158.085h81.572c17.377 0 31.462 14.131 31.462 31.509a31.462 31.462 0 0 1-31.462 31.462H538.624v39.946h127.708z" fill="#5C616F" p-id="8023"></path></svg>