<?xml version="1.0" standalone="no"?><!DOCTYPE svg PUBLIC "-//W3C//DTD SVG 1.1//EN" "http://www.w3.org/Graphics/SVG/1.1/DTD/svg11.dtd"><svg t="1614048326117" class="icon" viewBox="0 0 1024 1024" version="1.1" xmlns="http://www.w3.org/2000/svg" p-id="6704" xmlns:xlink="http://www.w3.org/1999/xlink" width="128" height="128"><defs><style type="text/css"></style></defs><path d="M895.914667 1024H127.957333a85.333333 85.333333 0 0 1-85.333333-85.333333V85.333333a85.333333 85.333333 0 0 1 85.333333-85.333333h426.666667v312.874667A113.706667 113.706667 0 0 0 668.416 426.666667H981.333333v512c0 47.104-38.229333 85.333333-85.418666 85.333333z m-554.666667-554.666667H256.085333c-2.901333 9.429333-33.493333 96.682667-42.837333 127.957334l-42.666667-127.957334h-85.333333l42.666667 170.709334-42.666667 170.624h85.333333c-1.109333 0 38.656-134.485333 38.826667-135.722667 0.256 2.645333 45.653333 132.138667 46.506667 135.722667h85.333333l-42.666667-170.624 42.666667-170.709334z m341.333333 0h-85.290666l-64 256L469.333333 469.333333H383.914667v341.333334H469.333333v-170.624L512 810.666667h42.666667l42.666666-170.624V810.666667h85.290667v-341.333334h-0.042667zM938.666667 725.333333h-128.085334v-256h-85.333333v341.333334H938.666667v-85.333334zM597.290667 298.581333V0L981.333333 384h-298.752a85.333333 85.333333 0 0 1-85.290666-85.418667z" fill="#FF8976" p-id="6705"></path></svg>