<?xml version="1.0" standalone="no"?><!DOCTYPE svg PUBLIC "-//W3C//DTD SVG 1.1//EN" "http://www.w3.org/Graphics/SVG/1.1/DTD/svg11.dtd"><svg t="1614343632612" class="icon" viewBox="0 0 1024 1024" version="1.1" xmlns="http://www.w3.org/2000/svg" p-id="12530" xmlns:xlink="http://www.w3.org/1999/xlink" width="64" height="64"><defs><style type="text/css"></style></defs><path d="M572.592128 814.267392l28.162048 0c12.650496-0.328704 28.162048-5.49888 28.162048-28.161024l0-56.32512c0-22.662144-15.512576-27.83232-28.162048-28.161024l-28.162048 0L572.592128 814.267392z" p-id="12531"></path><path d="M459.943936 560.806912l0 56.326144c0 22.662144 15.510528 27.833344 28.163072 28.161024l28.161024 0 0-112.65024-28.161024 0C475.452416 532.97664 459.943936 538.145792 459.943936 560.806912z" p-id="12532"></path><path d="M663.839744 328.408064c10.067968-10.176512 16.280576-24.092672 16.280576-39.493632 0-30.362624-24.147968-54.785024-54.289408-55.883776 18.8672-12.486656 163.306496-110.395392 110.614528-154.838016-56.326144-47.524864-181.296128 45.268992-225.299456 41.749504-44.003328 3.519488-168.972288-89.273344-225.297408-41.749504-52.696064 44.442624 91.717632 142.35136 110.58688 154.838016-30.089216 1.098752-54.26176 25.521152-54.26176 55.883776 0 15.40096 6.242304 29.31712 16.251904 39.493632C216.544256 405.14048 116.876288 585.500672 116.876288 795.835392c0 38.77888 3.685376 76.346368 10.120192 112.65024 250.600448 75.081728 517.701632 75.081728 768.301056 0 6.433792-36.303872 10.121216-73.87136 10.121216-112.65024C905.419776 585.500672 805.751808 405.14048 663.839744 328.408064zM595.634176 626.86208c33.992704 0 84.486144 22.49728 84.486144 84.487168l0 56.32512c0 61.991936-50.495488 84.487168-84.486144 84.487168l-28.162048 0 0 28.161024c0 15.512576-12.652544 28.163072-28.162048 28.163072-15.511552 0-28.163072-12.65152-28.163072-28.163072l0-28.161024-84.486144 0c-15.512576 0-28.163072-12.650496-28.163072-28.163072 0-15.509504 12.65152-28.163072 28.163072-28.163072l84.486144 0L511.147008 683.188224l-28.161024 0c-33.995776 0-84.488192-22.49728-84.488192-84.487168L398.497792 542.374912c0-61.989888 50.494464-84.486144 84.488192-84.486144l28.161024 0 0-28.161024c0-15.512576 12.650496-28.163072 28.163072-28.163072 15.509504 0 28.162048 12.652544 28.162048 28.163072l0 28.161024 84.487168 0c15.511552 0 28.161024 12.653568 28.161024 28.162048 0 15.511552-12.650496 28.161024-28.161024 28.161024l-84.487168 0 0 112.65024L595.634176 626.86208z" p-id="12533"></path></svg>