<?xml version="1.0" standalone="no"?><!DOCTYPE svg PUBLIC "-//W3C//DTD SVG 1.1//EN" "http://www.w3.org/Graphics/SVG/1.1/DTD/svg11.dtd"><svg t="1614341269248" class="icon" viewBox="0 0 1024 1024" version="1.1" xmlns="http://www.w3.org/2000/svg" p-id="5892" xmlns:xlink="http://www.w3.org/1999/xlink" width="64" height="64"><defs><style type="text/css"></style></defs><path d="M505.6 985.14H105.626c-35.226 0-64-11.111-86.426-37.018-9.626-11.11-12.8-25.908-12.8-40.756V203.674c0-40.756 38.4-74.087 83.2-77.773h83.2c12.8 0 19.2-3.687 19.2-14.797V81.459c6.4-29.645 25.6-44.441 57.6-44.441 25.6 0 44.8 18.534 48.026 48.128v3.686c3.174 40.755 3.174 40.755 44.8 40.755H691.2c15.974 0 22.426-3.686 22.426-18.534V85.146C716.8 55.5 739.226 40.704 768 40.704s48.026 18.534 51.2 44.442c0 14.796-6.4 33.33 3.174 40.755 12.8 7.424 32 3.686 48.026 3.686h48.026c48.025 3.687 86.425 37.018 86.425 81.46v696.268c0 48.128-41.574 81.46-99.225 85.197-128-7.373-265.626-7.373-400.026-7.373z m3.226-633.294H108.8c-15.974 0-22.426 3.687-22.426 18.535v511.078c0 22.221 9.626 25.907 28.775 25.907h787.2c28.774 0 28.774 0 28.774-25.907V374.067c0-18.534-3.174-22.22-22.425-22.22H508.826z" p-id="5893"></path><path d="M259.226 799.078h-51.2c-22.426 0-32-10.956-35.226-29.184V707.84c0-18.278 12.8-29.184 32-29.184h108.8c22.426 0 32 10.957 32 32.87v58.42c0 18.278-9.626 29.184-32 29.184h-54.374z m249.6 0h-51.2c-22.375 0-35.226-10.956-35.226-29.184v-58.419c0-21.913 9.626-29.184 32-32.87h105.574c19.2 0 32 10.957 32 29.184v62.054c0 18.279-12.8 29.184-32 29.184h-51.148v0.051z m249.548-120.473H812.8c19.2 0 32 10.957 28.774 29.184v65.74c0 18.279-12.8 29.185-32 29.185h-108.8c-19.2 0-32-10.957-32-29.184v-62.055c0-18.278 12.8-29.184 32-29.184 19.252-7.373 38.452-3.686 57.6-3.686zM508.826 590.95H454.4c-22.426 0-32-7.321-32-29.184v-65.74c0-18.279 9.626-25.55 28.774-25.55H563.2c19.2 0 28.774 10.958 32 29.185v62.054c0 18.279-9.626 29.184-32 29.184 0 0.051-54.426 0.051-54.374 0.051z m-249.6-120.473H313.6c19.2 0 32 10.957 32 25.549v65.74c0 18.279-9.626 25.55-28.774 25.55H204.8c-19.2 0-28.774-7.322-28.774-25.55V492.39c0-18.278 12.8-25.548 32-25.548 15.974 3.635 32 3.635 51.2 3.635zM755.2 590.95h-54.374c-19.2 0-32-10.956-32-29.184v-65.74c0-18.279 9.625-25.55 28.774-25.55h112.026c19.2 0 28.774 10.958 28.774 25.55v65.74c0 14.592-9.626 25.55-28.774 25.55-16.026 3.634-35.226 3.634-54.426 3.634z" p-id="5894"></path></svg>